<?xml version="1.0" encoding="UTF-8"?>
<svg width="412px" height="96px" viewBox="0 0 412 96" version="1.1" xmlns="http://www.w3.org/2000/svg" xmlns:xlink="http://www.w3.org/1999/xlink">
    <!-- Generator: Sketch 50.2 (55047) - http://www.bohemiancoding.com/sketch -->
    <title>Combined Shape</title>
    <desc>Created with Sketch.</desc>
    <defs>
        <linearGradient x1="0.842214595%" y1="50.8422146%" x2="95.4682876%" y2="50.8422146%" id="linearGradient-1">
            <stop stop-color="#C2FF5A" offset="0%"></stop>
            <stop stop-color="#A0E8FF" offset="100%"></stop>
        </linearGradient>
    </defs>
    <g id="Page-1" stroke="none" stroke-width="1" fill="none" fill-rule="evenodd">
        <g id="A4-Copy" transform="translate(-192.000000, -383.000000)" fill="url(#linearGradient-1)" fill-rule="nonzero">
            <path d="M547,478.157625 C524.792254,473.944966 508,454.433503 508,431 C508,404.490332 529.490332,383 556,383 C582.509668,383 604,404.490332 604,431 C604,454.433503 587.207746,473.944966 565,478.157625 C565,476.38993 566.192449,474.84472 567.902402,474.396606 C568.414622,474.262403 568.851489,474.139847 569.213009,474.028968 C587.618035,468.384107 601,451.254816 601,431 C601,406.147186 580.852814,386 556,386 C531.147186,386 511,406.147186 511,431 C511,451.249769 524.375297,468.37557 542.773233,474.024746 C543.138115,474.136785 543.579522,474.260671 544.097456,474.396405 C545.807496,474.844547 547,476.389839 547,478.157625 Z M322.12651,476.815155 L266.819053,476.815155 C265.714483,476.815155 264.819053,475.919724 264.819053,474.815155 L264.819053,385.297563 C264.819053,384.192993 265.714483,383.297563 266.819053,383.297563 L322.12651,383.297563 C322.12651,384.730811 320.964633,385.892688 319.531385,385.892688 L267.419733,385.892688 L267.419733,474.22003 L319.531385,474.22003 C320.964633,474.22003 322.12651,475.381907 322.12651,476.815155 Z M309.123108,438.545902 L309.123108,428.977878 C309.123108,427.39793 310.403909,426.117129 311.983857,426.117129 L311.983857,435.685153 C311.983857,437.265101 310.703056,438.545902 309.123108,438.545902 Z M392.344883,476.815155 L337.037425,476.815155 C335.932856,476.815155 335.037425,475.919724 335.037425,474.815155 L335.037425,385.297563 C335.037425,384.192993 335.932856,383.297563 337.037425,383.297563 L392.344883,383.297563 C392.344883,384.730811 391.183006,385.892688 389.749758,385.892688 L337.638106,385.892688 L337.638106,474.22003 L389.749758,474.22003 C391.183006,474.22003 392.344883,475.381907 392.344883,476.815155 Z M382.202229,426.117129 L382.202229,435.685153 C382.202229,437.265101 380.921428,438.545902 379.34148,438.545902 L379.34148,428.977878 C379.34148,427.39793 380.622281,426.117129 382.202229,426.117129 Z M246.652244,476.262985 L222.799801,442.348509 C222.23474,441.54508 222.733694,440.430699 223.710441,440.314654 C231.228039,439.421507 236.782478,436.515472 240.349523,431.588924 C244.121048,426.553298 246.020934,420.496998 246.020934,413.49501 C246.020934,405.819349 243.796732,399.357142 239.326952,393.858136 C235.017384,388.556231 228.445916,385.892688 219.647169,385.892688 L201.096826,385.892688 C199.663578,385.892688 198.501701,384.730811 198.501701,383.297563 L219.647169,383.297563 C229.181548,383.297563 236.503995,386.265492 241.346762,392.223372 C246.198214,398.191936 248.621615,405.232893 248.621615,413.49501 C248.621615,421.041935 246.550249,427.644864 242.445151,433.125583 C238.788616,438.176025 233.296623,441.326012 226.140376,442.580752 L247.285931,472.646453 C248.109972,473.818112 247.828172,475.435947 246.656513,476.259988 C246.655091,476.260989 246.653668,476.261987 246.652244,476.262985 Z M194.860749,476.327762 C193.280801,476.327762 192,475.046961 192,473.467013 L192,442.175274 C193.579948,442.175274 194.860749,443.456075 194.860749,445.036023 L194.860749,476.327762 Z M406.766339,385.1346 C408.07325,384.538431 409.616082,385.11321 410.214364,386.419156 L450.742479,474.885035 C449.435568,475.481204 447.892736,474.906424 447.294455,473.600479 L406.766339,385.1346 Z M463.981309,474.885035 L504.509425,386.419156 C505.107706,385.11321 506.650538,384.538431 507.957449,385.1346 L467.429334,473.600479 C466.831052,474.906424 465.288221,475.481204 463.981309,474.885035 Z" id="Combined-Shape"></path>
        </g>
    </g>
</svg>