<svg id="Ebene_1" data-name="Ebene 1" xmlns="http://www.w3.org/2000/svg" xmlns:xlink="http://www.w3.org/1999/xlink" viewBox="0 0 1700.8 1133.9"><defs><style>.cls-1{fill:url(#Unbenannter_Verlauf_27);}.cls-2{fill:#fff;}</style><linearGradient id="Unbenannter_Verlauf_27" x1="455.07" y1="539.04" x2="1277.51" y2="539.04" gradientUnits="userSpaceOnUse"><stop offset="0" stop-color="#c2ff5a" stop-opacity="0"/><stop offset="0.23" stop-color="#b8f88d"/><stop offset="0.44" stop-color="#aff2b7"/><stop offset="0.66" stop-color="#a7eddd"/><stop offset="0.78" stop-color="#a4ebeb"/><stop offset="0.88" stop-color="#a2e9f7" stop-opacity="0.53"/><stop offset="1" stop-color="#a0e8ff" stop-opacity="0"/></linearGradient></defs><title>glasses</title><path class="cls-1" d="M1270.59,440.52c-6.67-13.33-98.7-29.6-134.7-32.93s-252-6.67-268-6.67h-6.54c-16,0-232,3.33-268,6.67S464.6,425.86,457.93,439.19s0,26.34,3.33,36,24.09,7.07,29.75,8.07c0,9.67,5.67,110.34,15.67,131.67s52.33,44.33,93,55.33,112.67,9.67,158.33-10,50.34-77,101.34-77h10.54c51,0,55.67,57.34,101.33,77s117.67,21,158.34,10,83-34,93-55.33,15.66-122,15.66-131.67c5.67-1,34.37.27,37.7-9.4S1277.25,453.85,1270.59,440.52ZM1205.17,608.4c-9.52,19.2-49.79,39.89-88.48,49.78s-97.2,6.69-140.65-11-50.36-75.27-106.41-75.27h-10c-54.25,0-63,57.58-106.41,75.27s-102,20.9-140.64,11-79-30.58-88.48-49.78-14.9-99.94-14.91-119.45-.48-34.52,8.27-45.29c8.56-10.53,54.84-19.79,89.1-22.79,24.45-2.14,106.17-4.28,173.64-5.33,27-.42,14.76,19.33,31.33,19.33H917.73c16.7,0,3.12-19.76,28.95-19.37,67.19,1,151.29,3.21,176,5.37,34.25,3,81.07,11.85,89.1,22.79,8.26,11.27,8.26,31.3,8.26,45.29S1214.68,589.21,1205.17,608.4Z"/><path class="cls-2" d="M1250.56,430.61a31.6,31.6,0,0,0-5.29-3c-1.84-.84-3.73-1.56-5.64-2.23-3.82-1.33-7.71-2.43-11.64-3.43-7.84-2-15.78-3.57-23.75-5-15.94-2.78-32-4.85-48.09-6.59l-12.07-1.25c-4-.38-8.06-.79-12.08-1s-8.06-.48-12.1-.66-8.08-.35-12.13-.48c-16.18-.59-32.37-1-48.56-1.35-32.38-.68-64.76-1.39-97.15-1.93L913.48,403c-16.19-.21-32.4-.5-48.56-.54s-32.37.32-48.56.53l-48.58.78c-32.39.54-64.77,1.26-97.15,1.93-16.19.38-32.38.76-48.56,1.34-4,.14-8.09.27-12.13.47s-8.09.34-12.11.65-8.06.62-12.08,1l-12.08,1.22c-16.1,1.69-32.17,3.7-48.13,6.35-8,1.34-15.94,2.83-23.81,4.69-3.94.92-7.86,1.93-11.72,3.12a76.81,76.81,0,0,0-11.32,4.34,76.92,76.92,0,0,1,11.25-4.56c3.85-1.26,7.76-2.35,11.69-3.35,7.86-2,15.81-3.58,23.78-5,16-2.88,32-5.11,48.1-7q6-.7,12.08-1.33c4-.42,8.06-.84,12.12-1.11s8.1-.53,12.15-.75,8.09-.4,12.14-.58c16.19-.72,32.38-1.24,48.57-1.75l24.29-.71,24.29-.59,48.58-1,48.58-.91c16.2-.25,32.38-.6,48.61-.66s32.41.42,48.61.67l48.58.91c32.39.68,64.78,1.32,97.16,2.36,16.19.52,32.38,1,48.57,1.76,4,.17,8.09.35,12.14.58s8.09.42,12.15.76,8.08.71,12.11,1.13,8.06.87,12.08,1.36c16.09,2,32.14,4.27,48.07,7.27,8,1.52,15.9,3.2,23.72,5.31,3.91,1.07,7.79,2.25,11.6,3.65,1.9.71,3.78,1.47,5.61,2.34A31.67,31.67,0,0,1,1250.56,430.61Z"/><path class="cls-2" d="M491,483.26c.14,5.64.51,11.26.85,16.89S492.61,511.4,493,517q1.28,16.86,3,33.69c1.17,11.21,2.47,22.41,4.17,33.54.86,5.56,1.81,11.12,3,16.6.31,1.37.6,2.74,1,4.1s.71,2.71,1.11,4a35.84,35.84,0,0,0,3.13,7.66,44.55,44.55,0,0,0,4.85,6.74,64.3,64.3,0,0,0,5.84,6,112.38,112.38,0,0,0,13.26,10.27,201,201,0,0,0,29.55,16.07c20.54,9.07,42.17,16,64.51,18.33A291.92,291.92,0,0,0,660,675.86c5.62.05,11.23-.19,16.84-.38,5.6-.38,11.21-.68,16.79-1.33a261.57,261.57,0,0,0,33.2-5.42,182.9,182.9,0,0,0,31.87-10.33,73.5,73.5,0,0,0,14.21-8.52,97.68,97.68,0,0,0,12.28-11.25c7.62-8.16,14.14-17.34,21.19-26.21a143.46,143.46,0,0,1,11.28-12.82A66.7,66.7,0,0,1,831.29,589a53,53,0,0,1,16.21-6.08,39.09,39.09,0,0,1,4.28-.68,43.28,43.28,0,0,1,4.31-.37c2.91-.15,5.71-.12,8.53-.12s5.62,0,8.53.12a43.3,43.3,0,0,1,4.31.37,39.12,39.12,0,0,1,4.28.68A53,53,0,0,1,898,589a66.71,66.71,0,0,1,13.59,10.6,143.47,143.47,0,0,1,11.28,12.82c7,8.87,13.57,18.05,21.19,26.21A97.65,97.65,0,0,0,956.3,649.9a73.47,73.47,0,0,0,14.21,8.52,183,183,0,0,0,31.87,10.32,261.63,261.63,0,0,0,33.2,5.42c5.58.65,11.19.95,16.79,1.33,5.61.19,11.22.43,16.84.37a291.9,291.9,0,0,0,33.62-1.82c22.34-2.37,44-9.26,64.51-18.33a201.09,201.09,0,0,0,29.55-16.07,112.41,112.41,0,0,0,13.27-10.27,64.3,64.3,0,0,0,5.84-6,44.41,44.41,0,0,0,4.84-6.74A35.82,35.82,0,0,0,1224,609c.4-1.34.78-2.68,1.11-4s.65-2.73,1-4.1c1.2-5.49,2.14-11,3-16.6,1.71-11.13,3-22.33,4.17-33.54s2.13-22.45,3-33.69q.64-8.43,1.18-16.87c.34-5.63.71-11.25.85-16.89-.08,5.64-.39,11.27-.67,16.9s-.63,11.26-1,16.89q-1.1,16.88-2.62,33.73c-1,11.23-2.22,22.45-3.81,33.63-.8,5.59-1.69,11.17-2.83,16.71-.29,1.38-.58,2.77-.92,4.15s-.69,2.75-1.08,4.12a37.23,37.23,0,0,1-3.17,8,44.39,44.39,0,0,1-5,7,65.84,65.84,0,0,1-5.93,6.15,114,114,0,0,1-13.39,10.5,202.85,202.85,0,0,1-29.72,16.4,259.05,259.05,0,0,1-31.76,12c-5.4,1.66-10.92,3.06-16.48,4.21l-4.18.8c-1.39.27-2.78.55-4.19.73-2.8.4-5.6.85-8.41,1.2a294.29,294.29,0,0,1-33.89,2c-5.66.09-11.32-.16-17-.33-5.65-.37-11.3-.66-16.93-1.3a264.24,264.24,0,0,1-33.53-5.4,185.52,185.52,0,0,1-32.4-10.43,76.22,76.22,0,0,1-14.76-8.8A100.43,100.43,0,0,1,942,640.56c-7.8-8.33-14.39-17.57-21.38-26.34a140.63,140.63,0,0,0-11.07-12.54,63.81,63.81,0,0,0-13-10.13,50,50,0,0,0-15.32-5.71,36.46,36.46,0,0,0-4.06-.64,40.57,40.57,0,0,0-4.11-.34c-2.72-.14-5.56-.1-8.38-.11s-5.66,0-8.38.1a40.55,40.55,0,0,0-4.11.34,36.45,36.45,0,0,0-4.06.64,50,50,0,0,0-15.32,5.71,63.81,63.81,0,0,0-13,10.13,140.64,140.64,0,0,0-11.08,12.54c-7,8.77-13.58,18-21.38,26.34a100.44,100.44,0,0,1-12.65,11.54,76.24,76.24,0,0,1-14.75,8.8,185.44,185.44,0,0,1-32.4,10.43,264.17,264.17,0,0,1-33.53,5.4c-5.63.64-11.28.93-16.93,1.3-5.66.17-11.31.43-17,.33a294.3,294.3,0,0,1-33.89-2c-2.81-.35-5.61-.8-8.41-1.2-1.41-.18-2.8-.46-4.19-.73l-4.18-.8c-5.55-1.16-11.07-2.55-16.48-4.21a259,259,0,0,1-31.76-12A202.8,202.8,0,0,1,531.41,641,114,114,0,0,1,518,630.54a65.84,65.84,0,0,1-5.93-6.15,44.29,44.29,0,0,1-5-7,37.25,37.25,0,0,1-3.17-8c-.39-1.37-.76-2.74-1.08-4.12s-.63-2.76-.92-4.15c-1.15-5.54-2-11.12-2.84-16.71-1.59-11.18-2.77-22.4-3.82-33.63s-1.89-22.48-2.63-33.73q-.55-8.44-1-16.89C491.4,494.53,491.09,488.9,491,483.26Z"/><path class="cls-2" d="M859.6,571.91a75.51,75.51,0,0,0-14.1,1.48A61.91,61.91,0,0,0,832.14,578c-8.56,4.09-15.89,10.31-22.44,17.09s-12.44,14.25-18.56,21.48-12.52,14.29-19.93,20.27a74.74,74.74,0,0,1-11.89,7.86c-1.05.56-2.1,1.13-3.2,1.59s-2.16,1-3.27,1.44l-6.65,2.54a234.33,234.33,0,0,1-27.34,7.88q-13.92,3-28.09,4.61t-28.42,1.64a242.94,242.94,0,0,1-28.44-1.58c-2.35-.32-4.72-.57-7.07-1l-7-1.23-7-1.57c-2.31-.57-4.6-1.19-6.89-1.83A258.65,258.65,0,0,1,579,648a212,212,0,0,1-25.67-12.41,140.35,140.35,0,0,1-12-7.73,82.36,82.36,0,0,1-10.95-9.29,37.16,37.16,0,0,1-8.19-12,93.41,93.41,0,0,1-3.89-13.83c-2-9.32-3.35-18.72-4.55-28.13s-2.16-18.85-3-28.29-1.54-18.9-2.08-28.37c-.27-4.74-.5-9.47-.64-14.22s-.09-9.5-.1-14.25.1-9.52.58-14.3A50.9,50.9,0,0,1,511.68,451a31.42,31.42,0,0,1,3.5-6.49l1.1-1.49a15.63,15.63,0,0,1,1.32-1.44,21.68,21.68,0,0,1,3-2.29,64.45,64.45,0,0,1,13.19-6,225.91,225.91,0,0,1,27.63-7.25c9.31-1.9,18.69-3.45,28.11-4.7s18.9-2.16,28.38-2.67,18.94-.92,28.41-1.29c37.87-1.4,75.75-2.28,113.63-3l14.21-.25c2.38,0,4.7-.11,7.13-.09a36,36,0,0,1,7.35.68,18.48,18.48,0,0,1,7.07,2.9,16,16,0,0,1,5,5.9c1.16,2.21,2,4.46,3.11,6.22a7.05,7.05,0,0,0,4.77,3.3,12.94,12.94,0,0,0,1.56.24c.55,0,1.07.05,1.65.06H836.6l28.41,0h49.72c1.16,0,2.41,0,3.51,0a12.36,12.36,0,0,0,3.13-.44,6.59,6.59,0,0,0,4.24-3.82c.94-1.93,1.56-4.28,2.68-6.57a13.39,13.39,0,0,1,5.22-5.83,18.94,18.94,0,0,1,7.26-2.35c1.23-.18,2.46-.25,3.69-.31s2.45,0,3.62,0l7.1.12,14.21.26c37.88.73,75.75,1.62,113.63,3,37.8,1.11,76.1,4.13,112.56,15.68a60.16,60.16,0,0,1,13.17,6.07,19.57,19.57,0,0,1,3,2.38,14.17,14.17,0,0,1,1.28,1.51l1,1.56a14.37,14.37,0,0,1,.92,1.6c.28.55.59,1.08.85,1.64.46,1.13,1,2.23,1.39,3.39a65.4,65.4,0,0,1,3.17,14.11c.58,4.76.83,9.54.92,14.3.05,2.38.06,4.76.06,7.13s0,4.79-.13,7.15c-.18,4.75-.45,9.48-.74,14.22q-.88,14.2-2.16,28.36c-.85,9.44-1.82,18.88-3,28.29s-2.53,18.81-4.47,28.14A92.17,92.17,0,0,1,1207,606.8a37.52,37.52,0,0,1-8.26,11.92,82.44,82.44,0,0,1-11,9.26,140.9,140.9,0,0,1-12,7.71A212.51,212.51,0,0,1,1150,648.08a258.56,258.56,0,0,1-27,9.24c-2.29.64-4.58,1.27-6.89,1.82l-7,1.57-7,1.23c-2.35.37-4.71.63-7.07.95a246.78,246.78,0,0,1-28.44,1.56q-14.25-.15-28.42-1.67t-28.08-4.63a231.23,231.23,0,0,1-27.34-7.9l-6.65-2.54a70.76,70.76,0,0,1-6.45-3.06,74.8,74.8,0,0,1-11.84-7.94c-7.35-6.05-13.67-13.2-19.69-20.51s-11.84-14.8-18.42-21.6-14-12.89-22.61-16.85a63.72,63.72,0,0,0-13.44-4.43,78,78,0,0,0-14.11-1.41,78.05,78.05,0,0,1,14.13,1.32,63.85,63.85,0,0,1,13.5,4.36c8.67,3.92,16.17,10,22.8,16.76s12.5,14.25,18.58,21.5,12.4,14.33,19.73,20.29a74,74,0,0,0,11.77,7.78,69.93,69.93,0,0,0,6.39,3l6.63,2.49a230.2,230.2,0,0,0,27.26,7.69q13.87,2.9,28,4.43t28.29,1.48a250.22,250.22,0,0,0,28.25-1.67c2.33-.33,4.68-.59,7-1l7-1.24,6.89-1.57c2.29-.56,4.57-1.19,6.83-1.83a256.83,256.83,0,0,0,26.74-9.27,210.68,210.68,0,0,0,25.42-12.37,139,139,0,0,0,11.85-7.64,80.52,80.52,0,0,0,10.68-9.08,35.55,35.55,0,0,0,7.79-11.29,90.44,90.44,0,0,0,3.68-13.52c1.88-9.23,3.19-18.6,4.34-28s2.07-18.8,2.88-28.22,1.5-18.86,2-28.3c.27-4.72.52-9.44.68-14.16.09-2.37.12-4.68.1-7.06s0-4.72-.09-7.08c-.12-4.71-.36-9.4-.93-14a62.9,62.9,0,0,0-3.06-13.55c-.34-1.1-.87-2.12-1.3-3.18-.24-.51-.53-1-.79-1.51a12.55,12.55,0,0,0-.85-1.47l-.93-1.41a11.49,11.49,0,0,0-1-1.2,17.05,17.05,0,0,0-2.57-2,57.87,57.87,0,0,0-12.58-5.76,216.44,216.44,0,0,0-27.32-7c-9.25-1.84-18.59-3.31-28-4.52-18.72-2.55-37.62-3.07-56.54-3.84-37.84-1.35-75.71-2.19-113.58-2.87l-14.2-.24L948,417c-1.2,0-2.34,0-3.48,0s-2.27.12-3.38.29a16.12,16.12,0,0,0-6.17,2,10.42,10.42,0,0,0-4.09,4.62c-1,2-1.56,4.24-2.67,6.58a10.87,10.87,0,0,1-2.37,3.31,9.28,9.28,0,0,1-3.65,2,15.23,15.23,0,0,1-3.88.56c-1.27,0-2.39,0-3.59,0H865l-28.41,0H811.74c-.6,0-1.27,0-1.9-.07a15.84,15.84,0,0,1-1.95-.3,10,10,0,0,1-3.77-1.59,10.61,10.61,0,0,1-2.81-3c-1.42-2.22-2.19-4.5-3.24-6.47A13.09,13.09,0,0,0,794,420a15.61,15.61,0,0,0-6-2.43,33.15,33.15,0,0,0-6.77-.63c-2.3,0-4.72.06-7.07.09l-14.2.24c-37.87.68-75.74,1.51-113.58,2.86-18.92.78-37.83,1.27-56.54,3.87-9.36,1.23-18.68,2.75-27.93,4.63a223.46,223.46,0,0,0-27.3,7.13A62.16,62.16,0,0,0,522,441.49a19.2,19.2,0,0,0-2.64,2,13,13,0,0,0-1.08,1.17l-1,1.36a28.86,28.86,0,0,0-3.22,6,48.42,48.42,0,0,0-3,13.46c-.47,4.64-.55,9.35-.6,14.07s-.07,9.47,0,14.16.34,9.44.59,14.16q.76,14.16,2,28.3c.8,9.42,1.74,18.84,2.89,28.22s2.5,18.74,4.41,28a91.65,91.65,0,0,0,3.74,13.51,35.18,35.18,0,0,0,7.72,11.34,80.45,80.45,0,0,0,10.65,9.11A138.46,138.46,0,0,0,554.28,634a210.21,210.21,0,0,0,25.4,12.39,256.91,256.91,0,0,0,26.73,9.3c2.27.65,4.55,1.27,6.83,1.84l6.88,1.58,7,1.24c2.32.4,4.67.64,7,1A247.69,247.69,0,0,0,662.34,663q14.17,0,28.29-1.45t28-4.41a233.35,233.35,0,0,0,27.27-7.66l6.63-2.49c1.1-.42,2.16-.94,3.24-1.4s2.12-1,3.17-1.55a74,74,0,0,0,11.82-7.7c7.39-5.88,13.84-12.86,20-20.05s12.08-14.6,18.72-21.38,14-13,22.63-17a62.05,62.05,0,0,1,13.43-4.58A75.56,75.56,0,0,1,859.6,571.91Z"/></svg>